<svg version="1.1" id="Layer_1" xmlns="http://www.w3.org/2000/svg" xmlns:xlink="http://www.w3.org/1999/xlink" x="0px" y="0px"
	 width="100%" viewBox="0 0 512 512" enable-background="new 0 0 512 512" xml:space="preserve">
<path fill="#000000" opacity="1.000000" stroke="none" 
	d="
M513.000000,51.000000 
	C513.000000,188.689987 513.000000,326.379974 512.654785,464.625580 
	C508.394928,474.173431 501.107269,477.965698 491.741852,477.968353 
	C335.303711,478.012695 178.865570,478.000000 22.427435,478.000092 
	C15.011606,478.000092 8.744545,475.514435 4.053208,469.563934 
	C3.085496,468.336548 2.020269,467.185974 1.000001,466.000000 
	C1.000000,327.309998 1.000000,188.620010 1.340600,49.387402 
	C6.447927,41.127140 12.924779,37.816471 22.418407,37.830910 
	C178.826279,38.068813 335.234711,38.069988 491.642639,37.843521 
	C502.140320,37.828320 508.883087,41.734562 513.000000,51.000000 
M130.158585,255.312561 
	C138.206482,252.246338 144.581726,255.027740 150.318237,260.782837 
	C176.551453,287.101166 202.849258,313.355103 229.130981,339.625092 
	C230.383743,340.877319 231.704102,342.061951 233.459198,343.717957 
	C234.907135,342.012756 235.997940,340.529236 237.284714,339.241486 
	C279.922546,296.571320 322.699646,254.038925 365.095612,211.129913 
	C371.060577,205.092758 383.731384,204.815689 389.984985,211.202362 
	C419.361938,241.204453 449.225616,270.729950 478.918060,300.423065 
	C480.090454,301.595490 481.288666,302.742126 482.664062,304.085632 
	C482.664062,224.921555 482.664062,146.520721 482.664062,68.310722 
	C331.942474,68.310722 181.556931,68.310722 31.323009,68.310722 
	C31.323009,162.960922 31.323009,257.300110 31.323009,352.773560 
	C33.192162,350.639160 34.307869,349.208618 35.580513,347.934845 
	C64.789070,318.700378 93.997223,289.465424 123.279961,260.305359 
	C125.073830,258.519012 127.483177,257.350708 130.158585,255.312561 
M432.499969,298.000031 
	C414.176697,279.675232 395.853394,261.350403 377.477631,242.973129 
	C333.310303,287.154053 289.220245,330.971649 245.567444,375.220612 
	C238.720078,382.161438 227.210632,382.152405 220.609879,375.391571 
	C192.904953,347.014984 164.668304,319.157532 136.553085,291.036682 
	C101.883247,325.683289 67.249901,360.281464 32.664673,394.927643 
	C31.835087,395.758667 31.077486,397.123383 31.070366,398.244171 
	C30.967966,414.363007 31.000340,430.482758 31.000340,446.641235 
	C181.903503,446.641235 332.414032,446.641235 483.000000,446.641235 
	C483.000000,414.622070 483.043396,382.961426 482.887604,351.301758 
	C482.878632,349.485779 481.645569,347.281982 480.306274,345.926544 
	C464.612457,330.043671 448.789154,314.288696 432.499969,298.000031 
z"/>
<path fill="#FFFFFF" opacity="1.000000" stroke="none" 
	d="
M513.000000,50.531342 
	C508.883087,41.734562 502.140320,37.828320 491.642639,37.843521 
	C335.234711,38.069988 178.826279,38.068813 22.418407,37.830910 
	C12.924779,37.816471 6.447927,41.127140 1.340600,48.922386 
	C1.000000,33.011475 1.000000,17.022951 1.000002,1.041713 
	C171.666672,1.048998 342.333344,1.048998 513.000000,1.048998 
	C513.000000,17.419559 513.000000,33.741119 513.000000,50.531342 
z"/>
<path fill="#FFFFFF" opacity="1.000000" stroke="none" 
	d="
M1.000001,466.468658 
	C2.020269,467.185974 3.085496,468.336548 4.053208,469.563934 
	C8.744545,475.514435 15.011606,478.000092 22.427435,478.000092 
	C178.865570,478.000000 335.303711,478.012695 491.741852,477.968353 
	C501.107269,477.965698 508.394928,474.173431 512.654785,465.090576 
	C513.000000,480.988464 513.000000,496.976929 513.000000,512.958740 
	C342.333313,512.952148 171.666656,512.952148 1.000000,512.952148 
	C1.000000,497.581970 1.000000,482.259644 1.000001,466.468658 
z"/>
<path fill="#FFFFFF" opacity="1.000000" stroke="none" 
	d="
M129.882385,255.603714 
	C127.483177,257.350708 125.073830,258.519012 123.279961,260.305359 
	C93.997223,289.465424 64.789070,318.700378 35.580513,347.934845 
	C34.307869,349.208618 33.192162,350.639160 31.323009,352.773560 
	C31.323009,257.300110 31.323009,162.960922 31.323009,68.310722 
	C181.556931,68.310722 331.942474,68.310722 482.664062,68.310722 
	C482.664062,146.520721 482.664062,224.921555 482.664062,304.085632 
	C481.288666,302.742126 480.090454,301.595490 478.918060,300.423065 
	C449.225616,270.729950 419.361938,241.204453 389.984985,211.202362 
	C383.731384,204.815689 371.060577,205.092758 365.095612,211.129913 
	C322.699646,254.038925 279.922546,296.571320 237.284714,339.241486 
	C235.997940,340.529236 234.907135,342.012756 233.459198,343.717957 
	C231.704102,342.061951 230.383743,340.877319 229.130981,339.625092 
	C202.849258,313.355103 176.551453,287.101166 150.318237,260.782837 
	C144.581726,255.027740 138.206482,252.246338 129.882385,255.603714 
M236.983292,133.479660 
	C236.688889,133.330475 236.392456,133.046921 236.100388,133.051376 
	C219.563110,133.302719 205.312790,138.311111 194.012985,151.251816 
	C185.691528,160.781647 181.365677,171.760178 181.216339,183.878189 
	C181.016617,200.082306 187.192276,213.958252 200.022430,224.578918 
	C213.123856,235.424088 227.905060,238.638916 244.342758,235.222733 
	C255.626953,232.877579 264.650116,226.872482 272.247406,218.321289 
	C280.835876,208.654480 284.757904,196.990967 284.687531,184.590012 
	C284.612793,171.410019 279.977631,159.389084 270.310547,149.651611 
	C261.244171,140.519241 250.866028,134.503143 236.983292,133.479660 
z"/>
<path fill="#FFFFFF" opacity="1.000000" stroke="none" 
	d="
M432.750000,298.250000 
	C448.789154,314.288696 464.612457,330.043671 480.306274,345.926544 
	C481.645569,347.281982 482.878632,349.485779 482.887604,351.301758 
	C483.043396,382.961426 483.000000,414.622070 483.000000,446.641235 
	C332.414032,446.641235 181.903503,446.641235 31.000340,446.641235 
	C31.000340,430.482758 30.967966,414.363007 31.070366,398.244171 
	C31.077486,397.123383 31.835087,395.758667 32.664673,394.927643 
	C67.249901,360.281464 101.883247,325.683289 136.553085,291.036682 
	C164.668304,319.157532 192.904953,347.014984 220.609879,375.391571 
	C227.210632,382.152405 238.720078,382.161438 245.567444,375.220612 
	C289.220245,330.971649 333.310303,287.154053 377.477631,242.973129 
	C395.853394,261.350403 414.176697,279.675232 432.750000,298.250000 
z"/>
<path fill="#000000" opacity="1.000000" stroke="none" 
	d="
M237.367859,133.719833 
	C250.866028,134.503143 261.244171,140.519241 270.310547,149.651611 
	C279.977631,159.389084 284.612793,171.410019 284.687531,184.590012 
	C284.757904,196.990967 280.835876,208.654480 272.247406,218.321289 
	C264.650116,226.872482 255.626953,232.877579 244.342758,235.222733 
	C227.905060,238.638916 213.123856,235.424088 200.022430,224.578918 
	C187.192276,213.958252 181.016617,200.082306 181.216339,183.878189 
	C181.365677,171.760178 185.691528,160.781647 194.012985,151.251816 
	C205.312790,138.311111 219.563110,133.302719 236.100388,133.051376 
	C236.392456,133.046921 236.688889,133.330475 237.367859,133.719833 
M233.418045,205.952576 
	C234.152847,205.636093 234.867401,205.107590 235.625534,205.035126 
	C245.899689,204.053024 255.256546,194.400970 252.962143,180.252853 
	C251.351074,170.318497 239.033447,162.741196 228.660675,164.984375 
	C214.382614,168.072128 206.938828,185.687668 216.989441,197.689926 
	C221.253342,202.781784 226.725632,204.450577 233.418045,205.952576 
z"/>
<path fill="#FFFFFF" opacity="1.000000" stroke="none" 
	d="
M232.998047,205.952347 
	C226.725632,204.450577 221.253342,202.781784 216.989441,197.689926 
	C206.938828,185.687668 214.382614,168.072128 228.660675,164.984375 
	C239.033447,162.741196 251.351074,170.318497 252.962143,180.252853 
	C255.256546,194.400970 245.899689,204.053024 235.625534,205.035126 
	C234.867401,205.107590 234.152847,205.636093 232.998047,205.952347 
z"/>
</svg>